
<svg xmlns="http://www.w3.org/2000/svg" viewBox="0 0 70 70">
  <path fill="#9b87f5" d="M35,5C18.4,5,5,18.4,5,35s13.4,30,30,30s30-13.4,30-30S51.6,5,35,5z M35,60c-13.8,0-25-11.2-25-25
    s11.2-25,25-25s25,11.2,25,25S48.8,60,35,60z"/>
  <path fill="#9b87f5" d="M46.2,23.8l-7.5-3.8c-2.3-1.1-5-1.1-7.3,0l-7.5,3.8c-2.3,1.1-3.7,3.5-3.7,6.1v10c0,2.6,1.4,5,3.7,6.1l7.5,3.8
    c1.1,0.6,2.4,0.9,3.7,0.9c1.3,0,2.5-0.3,3.7-0.9l7.5-3.8c2.3-1.1,3.7-3.5,3.7-6.1v-10C49.9,27.3,48.5,24.9,46.2,23.8z M25,42.5
    c-1.4,0-2.5-1.1-2.5-2.5s1.1-2.5,2.5-2.5s2.5,1.1,2.5,2.5S26.4,42.5,25,42.5z M35,42.5c-1.4,0-2.5-1.1-2.5-2.5s1.1-2.5,2.5-2.5
    s2.5,1.1,2.5,2.5S36.4,42.5,35,42.5z M45,42.5c-1.4,0-2.5-1.1-2.5-2.5s1.1-2.5,2.5-2.5s2.5,1.1,2.5,2.5S46.4,42.5,45,42.5z"/>
</svg>
