
<svg xmlns="http://www.w3.org/2000/svg" viewBox="0 0 70 70">
  <path fill="#9b87f5" d="M35,5C18.4,5,5,18.4,5,35s13.4,30,30,30s30-13.4,30-30S51.6,5,35,5z M35,60c-13.8,0-25-11.2-25-25
    s11.2-25,25-25s25,11.2,25,25S48.8,60,35,60z"/>
  <path fill="#9b87f5" d="M42.5,20h-15c-1.4,0-2.5,1.1-2.5,2.5v25c0,1.4,1.1,2.5,2.5,2.5h15c1.4,0,2.5-1.1,2.5-2.5v-25
    C45,21.1,43.9,20,42.5,20z M40,45H30V25h10V45z"/>
  <path fill="#9b87f5" d="M27.5,32.5h-5c-1.4,0-2.5,1.1-2.5,2.5v10c0,1.4,1.1,2.5,2.5,2.5h5c1.4,0,2.5-1.1,2.5-2.5v-10
    C30,33.6,28.9,32.5,27.5,32.5z"/>
  <path fill="#9b87f5" d="M47.5,32.5h-5c-1.4,0-2.5,1.1-2.5,2.5v10c0,1.4,1.1,2.5,2.5,2.5h5c1.4,0,2.5-1.1,2.5-2.5v-10
    C50,33.6,48.9,32.5,47.5,32.5z"/>
</svg>
