
<svg xmlns="http://www.w3.org/2000/svg" viewBox="0 0 70 70">
  <path fill="#9b87f5" d="M55,27.5c0-6.9-5.6-12.5-12.5-12.5c-3.1,0-6,1.2-8.2,3.1C32.1,16.2,29.2,15,26,15c-6.6,0-12,5.4-12,12
    c0,0.2,0,0.4,0,0.6C10.1,29.3,7,33.6,7,38.8C7,45.3,12.2,50.5,18.8,50.5h32.5c6.6,0,11.9-5.3,11.9-11.9
    C63.1,32.9,59.7,28.7,55,27.5z M51.2,45.5H18.8c-3.7,0-6.8-3-6.8-6.8c0-3.4,2.5-6.3,5.9-6.7l1.7-0.2l-0.2-1.7c-0.1-0.4-0.1-0.8-0.1-1.2
    c0-3.9,3.1-7,7-7c2.2,0,4.2,1,5.5,2.8l1.1,1.5l1.2-1.3c1.6-1.8,3.9-2.9,6.4-2.9c4.7,0,8.5,3.8,8.5,8.5v1.4h1.4c3.8,0,6.9,3.1,6.9,6.9
    S55,45.5,51.2,45.5z"/>
  <path fill="#9b87f5" d="M24,35l5,5l-5,5V35z"/>
  <path fill="#9b87f5" d="M46,35l-5,5l5,5V35z"/>
  <path fill="#9b87f5" d="M31,32l4,16h-4L31,32z"/>
  <path fill="#9b87f5" d="M39,32l-4,16h4L39,32z"/>
</svg>
