
<svg xmlns="http://www.w3.org/2000/svg" viewBox="0 0 70 70">
  <path fill="#9b87f5" d="M50,15H20c-2.8,0-5,2.2-5,5v30c0,2.8,2.2,5,5,5h30c2.8,0,5-2.2,5-5V20C55,17.2,52.8,15,50,15z M50,50H20V20
    h30V50z"/>
  <path fill="#9b87f5" d="M30,40h-5V30h5c2.8,0,5,2.2,5,5S32.8,40,30,40z M30,32.5h-2.5V37.5H30c1.4,0,2.5-1.1,2.5-2.5
    S31.4,32.5,30,32.5z"/>
  <path fill="#9b87f5" d="M45,30h-5v10h2.5v-3.8h2.5c1.4,0,2.5-1.1,2.5-2.5v-1.2C47.5,31.1,46.4,30,45,30z M45,33.8h-2.5v-1.2H45V33.8z"/>
  <path fill="#9b87f5" d="M35,40c-2.8,0-5-2.2-5-5v-5h2.5v5c0,1.4,1.1,2.5,2.5,2.5s2.5-1.1,2.5-2.5v-5H40v5C40,37.8,37.8,40,35,40z"/>
</svg>
