
<svg xmlns="http://www.w3.org/2000/svg" viewBox="0 0 70 70">
  <path fill="#9b87f5" d="M45.5,20.9c0-0.2-0.2-0.3-0.3-0.3c-0.1,0-2.7-0.2-2.7-0.2s-2.2-2.1-2.4-2.3c-0.2-0.2-0.7-0.2-0.9-0.1
    c0,0-0.5,0.1-1.2,0.4c-0.7-2.1-2-4-4.2-4c-0.1,0-0.2,0-0.3,0c-0.6-0.8-1.4-1.2-2-1.2c-5,0-7.4,6.3-8.2,9.4c-2,0.6-3.4,1.1-3.5,1.1
    c-1.1,0.3-1.1,0.4-1.2,1.4C18.4,26,15,51.3,15,51.3l22.9,4.3l12.4-2.7C50.3,52.9,45.5,21.2,45.5,20.9z M36.5,19.2
    c-0.6,0.2-1.2,0.4-1.9,0.6c0-2.2-0.3-5.4-1.3-6.8C35,13.4,36.1,16.7,36.5,19.2z M32.1,13.5c0.9,1.1,1.2,4.8,1.3,6.7
    c-1,0.3-2.1,0.7-3.3,1c0.6-2.5,2.1-6.7,3.9-7.8C34,13.5,33.1,13.4,32.1,13.5z M31.2,12.2c0.4,0,0.6,0.1,0.8,0.2
    c-2.1,1-3.8,5.9-4.4,8.6c-1.2,0.4-2.3,0.7-3.3,1C25.2,18.8,27.3,12.2,31.2,12.2z"/>
  <path fill="#9b87f5" d="M45.1,20.6l-2.3-0.2c0,0-1.5-1.5-1.7-1.7c-0.1-0.1-0.2-0.1-0.3-0.1l-1.3,27.5l9.8-2.1 C49.4,44,45.1,20.8,45.1,20.6z"/>
  <path fill="#fff" d="M33.6,29.1l-1.5,4.5c0,0-1.4-0.7-3-0.7c-2.5,0-2.6,1.5-2.6,1.9c0,2.1,5.4,2.9,5.4,7.8c0,3.9-2.5,6.3-5.8,6.3
    c-4,0-6-2.5-6-2.5l1.1-3.5c0,0,2.1,1.8,3.9,1.8c1.2,0,1.6-0.9,1.6-1.6c0-2.8-4.4-2.9-4.4-7.5c0-3.8,2.8-7.5,8.3-7.5
    C32.4,28.1,33.6,29.1,33.6,29.1z"/>
</svg>
