
<svg xmlns="http://www.w3.org/2000/svg" viewBox="0 0 70 70">
  <path fill="#9b87f5" d="M53.4,30.7c-0.7-7.3-6.8-13.1-14.2-13.1c-5.3,0-9.9,2.9-12.3,7.2c-0.6-0.1-1.3-0.2-1.9-0.2
    c-5.5,0-10,4.5-10,10c0,5.5,4.5,10,10,10h25c4.4,0,8-3.6,8-8C58,33.3,56.1,31.2,53.4,30.7z M50,40H25c-3,0-5.4-2.4-5.4-5.4
    c0-3,2.4-5.4,5.4-5.4c1,0,2,0.3,2.8,0.8l1.7,1l0.7-1.8c1.6-4,5.5-6.6,9.9-6.6c5.9,0,10.7,4.8,10.7,10.7V35h0.9
    c1.9,0,3.4,1.5,3.4,3.4C55,40.4,52.8,40,50,40z"/>
  <path fill="#9b87f5" d="M40,43.3l-5,5l-5-5H40z"/>
</svg>
