
<svg xmlns="http://www.w3.org/2000/svg" viewBox="0 0 70 70">
  <path fill="#9b87f5" d="M35,0C15.7,0,0,15.7,0,35s15.7,35,35,35s35-15.7,35-35S54.3,0,35,0z M35,68C16.8,68,2,53.2,2,35S16.8,2,35,2
    s33,14.8,33,33S53.2,68,35,68z"/>
  <path fill="#9b87f5" d="M16.7,28.2L16,40.6c-0.1,1.9,0.2,3.2,0.9,4c0.6,0.7,1.5,1.2,2.7,1.3c2.2,0.2,3.6-0.6,4.2-2.4l2.5-7.6
    c0.2-0.7,0.5-1.2,0.7-1.5l3.9,11c0.7,1.8,2,2.7,4.1,2.5c2-0.2,3.1-1.3,3.1-3.3c0-0.7-0.2-1.6-0.6-2.8l-3.7-10.2c1.1-0.5,2-1.3,2.6-2.3
    c0.7-1.1,1-2.4,1-3.7c0-1.9-0.6-3.4-1.9-4.6c-1.3-1.2-3-1.9-5.1-1.9c-2.2,0-3.9,0.7-5.2,2.1c-1.3,1.4-1.9,3.2-1.9,5.3v0.5l-0.6-1.4
    c-0.4-0.9-1-1.6-1.9-2.1c-0.9-0.5-1.9-0.7-3-0.6c-2.2,0.2-3.6,1.7-4.2,4.6L16.7,28.2z"/>
  <path fill="#9b87f5" d="M46.2,22.7c-0.3,0-0.5,0.1-0.7,0.3C45.2,23.2,45,23.5,45,24s0.1,0.8,0.4,1.1c0.2,0.2,0.5,0.3,0.7,0.3
    c0.3,0,0.5-0.1,0.7-0.3c0.2-0.2,0.4-0.5,0.4-0.9c0-0.4-0.1-0.8-0.4-1.1C46.7,22.8,46.5,22.7,46.2,22.7z"/>
  <path fill="#9b87f5" d="M52.5,27.7c-1-1.3-2.4-2-4.1-2c-1.8,0-3.3,0.7-4.3,2c-1.1,1.3-1.6,3.1-1.6,5.4v4.6c0,2.2,0.5,4,1.6,5.3
    c1.1,1.3,2.5,2,4.3,2c1.7,0,3.1-0.7,4.1-2c1-1.3,1.6-3.1,1.6-5.3v-4.6C54.1,30.8,53.6,29,52.5,27.7z M50.2,35.7c0,2.3-0.6,3.5-1.8,3.5
    c-1.2,0-1.9-1.2-1.9-3.5v-2.7c0-2.3,0.6-3.5,1.9-3.5c1.2,0,1.8,1.2,1.8,3.5V35.7z"/>
</svg>
